<svg xmlns="http://www.w3.org/2000/svg" xmlns:svg="http://www.w3.org/2000/svg" id="svg3061" width="744.094" height="1052.362" version="1.1"><metadata id="metadata3066"/><g id="layer1"><path style="fill:#e34c26;fill-opacity:1;stroke:none" id="path3867" d="m -138.99109,277.29879 c -14.53315,4.29396 3.29251,-17.92484 -10.92866,-23.16018 -14.28885,-5.26026 -14.88152,23.04121 -23.49711,10.4868 -8.57478,-12.49494 18.06498,-2.40772 18.6495,-17.55066 0.58731,-15.21501 -26.51213,-7.03304 -17.23455,-19.10648 9.23364,-12.01625 7.87227,16.43679 22.45469,12.31328 14.65183,-4.14314 -1.50388,-27.38787 12.84557,-22.29526 14.28149,5.06849 -13.19965,12.56621 -4.77174,25.16069 8.46802,12.65441 25.58268,-9.8936 25.17355,5.32725 -0.4072,15.14875 -16.0301,-8.67044 -25.40379,3.23688 -9.4183,11.964 17.31485,21.27329 2.71254,25.58768 z" transform="matrix(7.952999,0.00686197,-0.00703173,8.1498559,1534.6187,-1471.3378)"/><path id="path3076" d="m -138.99109,277.29879 c -14.53315,4.29396 3.29251,-17.92484 -10.92866,-23.16018 -14.28885,-5.26026 -14.88152,23.04121 -23.49711,10.4868 -8.57478,-12.49494 18.06498,-2.40772 18.6495,-17.55066 0.58731,-15.21501 -26.51213,-7.03304 -17.23455,-19.10648 9.23364,-12.01625 7.87227,16.43679 22.45469,12.31328 14.65183,-4.14314 -1.50388,-27.38787 12.84557,-22.29526 14.28149,5.06849 -13.19965,12.56621 -4.77174,25.16069 8.46802,12.65441 25.58268,-9.8936 25.17355,5.32725 -0.4072,15.14875 -16.0301,-8.67044 -25.40379,3.23688 -9.4183,11.964 17.31485,21.27329 2.71254,25.58768 z" transform="matrix(7.952999,0.00686197,-0.00703173,8.1498559,1534.6187,-1471.3378)" style="fill:#e34c26;fill-opacity:1;stroke:none"/></g></svg>